<mxfile host="app.diagrams.net" agent="Mozilla/5.0 (Windows NT 10.0; Win64; x64) AppleWebKit/537.36 (KHTML, like Gecko) Chrome/131.0.0.0 Safari/537.36" version="25.0.3">
  <diagram name="Page-1" id="yDxbldq4DqL8LKi0ULIL">
    <mxGraphModel dx="2741" dy="2347" grid="1" gridSize="10" guides="1" tooltips="1" connect="1" arrows="1" fold="1" page="1" pageScale="1" pageWidth="827" pageHeight="1169" math="0" shadow="0">
      <root>
        <mxCell id="0" />
        <mxCell id="1" parent="0" />
        <mxCell id="bW6O4sqhg-djHRlfO87y-1" value="Påkrevd" style="swimlane;horizontal=0;whiteSpace=wrap;html=1;startSize=23;" parent="1" vertex="1">
          <mxGeometry x="730" y="320" width="930" height="200" as="geometry" />
        </mxCell>
        <mxCell id="bW6O4sqhg-djHRlfO87y-2" value="Betinget" style="swimlane;horizontal=0;whiteSpace=wrap;html=1;" parent="1" vertex="1">
          <mxGeometry x="730" y="520" width="930" height="200" as="geometry" />
        </mxCell>
        <mxCell id="bW6O4sqhg-djHRlfO87y-3" value="Horizontal Container" style="swimlane;horizontal=0;whiteSpace=wrap;html=1;" parent="1" vertex="1">
          <mxGeometry x="730" y="920" width="930" height="200" as="geometry" />
        </mxCell>
        <mxCell id="bW6O4sqhg-djHRlfO87y-5" value="" style="rhombus;whiteSpace=wrap;html=1;" parent="1" vertex="1">
          <mxGeometry x="780" y="50" width="80" height="80" as="geometry" />
        </mxCell>
        <mxCell id="bW6O4sqhg-djHRlfO87y-6" value="" style="rhombus;whiteSpace=wrap;html=1;" parent="1" vertex="1">
          <mxGeometry x="780" y="170" width="80" height="80" as="geometry" />
        </mxCell>
        <mxCell id="bW6O4sqhg-djHRlfO87y-7" value="Trekkekum_853" style="swimlane;fontStyle=0;childLayout=stackLayout;horizontal=1;startSize=30;horizontalStack=0;resizeParent=1;resizeParentMax=0;resizeLast=0;collapsible=1;marginBottom=0;whiteSpace=wrap;html=1;" parent="1" vertex="1">
          <mxGeometry x="-110" y="320" width="220" height="780" as="geometry" />
        </mxCell>
        <mxCell id="bW6O4sqhg-djHRlfO87y-25" value="Kumform_9738" style="text;whiteSpace=wrap;fillColor=#f8cecc;strokeColor=#b85450;" parent="bW6O4sqhg-djHRlfO87y-7" vertex="1">
          <mxGeometry y="30" width="220" height="30" as="geometry" />
        </mxCell>
        <mxCell id="bW6O4sqhg-djHRlfO87y-26" value="Plassering_9740" style="text;whiteSpace=wrap;fillColor=#f8cecc;strokeColor=#b85450;" parent="bW6O4sqhg-djHRlfO87y-7" vertex="1">
          <mxGeometry y="60" width="220" height="30" as="geometry" />
        </mxCell>
        <mxCell id="bW6O4sqhg-djHRlfO87y-27" value="MaterialeKum_9741" style="text;whiteSpace=wrap;fillColor=#f8cecc;strokeColor=#b85450;" parent="bW6O4sqhg-djHRlfO87y-7" vertex="1">
          <mxGeometry y="90" width="220" height="30" as="geometry" />
        </mxCell>
        <mxCell id="bW6O4sqhg-djHRlfO87y-28" value="MaterialeLokk_11241" style="text;whiteSpace=wrap;fillColor=#d5e8d4;strokeColor=#82b366;" parent="bW6O4sqhg-djHRlfO87y-7" vertex="1">
          <mxGeometry y="120" width="220" height="30" as="geometry" />
        </mxCell>
        <mxCell id="bW6O4sqhg-djHRlfO87y-29" value="Brannsikker_9742" style="text;whiteSpace=wrap;fillColor=#f8cecc;strokeColor=#b85450;" parent="bW6O4sqhg-djHRlfO87y-7" vertex="1">
          <mxGeometry y="150" width="220" height="30" as="geometry" />
        </mxCell>
        <mxCell id="bW6O4sqhg-djHRlfO87y-30" value="DiameterYtre_9729" style="text;whiteSpace=wrap;fillColor=#e1d5e7;strokeColor=#9673a6;" parent="bW6O4sqhg-djHRlfO87y-7" vertex="1">
          <mxGeometry y="180" width="220" height="30" as="geometry" />
        </mxCell>
        <mxCell id="bW6O4sqhg-djHRlfO87y-31" value="BreddeYtre_9728" style="text;whiteSpace=wrap;fillColor=#e1d5e7;strokeColor=#9673a6;" parent="bW6O4sqhg-djHRlfO87y-7" vertex="1">
          <mxGeometry y="210" width="220" height="30" as="geometry" />
        </mxCell>
        <mxCell id="bW6O4sqhg-djHRlfO87y-32" value="LengdeYtre_9739" style="text;whiteSpace=wrap;fillColor=#e1d5e7;strokeColor=#9673a6;" parent="bW6O4sqhg-djHRlfO87y-7" vertex="1">
          <mxGeometry y="240" width="220" height="30" as="geometry" />
        </mxCell>
        <mxCell id="bW6O4sqhg-djHRlfO87y-33" value="DybdeYtre_9737" style="text;whiteSpace=wrap;fillColor=#f8cecc;strokeColor=#b85450;" parent="bW6O4sqhg-djHRlfO87y-7" vertex="1">
          <mxGeometry y="270" width="220" height="30" as="geometry" />
        </mxCell>
        <mxCell id="bW6O4sqhg-djHRlfO87y-34" value="AntallRør_10840" style="text;whiteSpace=wrap;fillColor=#d5e8d4;strokeColor=#82b366;" parent="bW6O4sqhg-djHRlfO87y-7" vertex="1">
          <mxGeometry y="300" width="220" height="30" as="geometry" />
        </mxCell>
        <mxCell id="bW6O4sqhg-djHRlfO87y-35" value="Tilleggsinformasjon_11242" style="text;whiteSpace=wrap;fillColor=#d5e8d4;strokeColor=#82b366;" parent="bW6O4sqhg-djHRlfO87y-7" vertex="1">
          <mxGeometry y="330" width="220" height="30" as="geometry" />
        </mxCell>
        <mxCell id="bW6O4sqhg-djHRlfO87y-36" value="Etableringsår_9731" style="text;whiteSpace=wrap;fillColor=#f8cecc;strokeColor=#b85450;" parent="bW6O4sqhg-djHRlfO87y-7" vertex="1">
          <mxGeometry y="360" width="220" height="30" as="geometry" />
        </mxCell>
        <mxCell id="bW6O4sqhg-djHRlfO87y-37" value="Driftsmerking_9757" style="text;whiteSpace=wrap;fillColor=#f8cecc;strokeColor=#b85450;" parent="bW6O4sqhg-djHRlfO87y-7" vertex="1">
          <mxGeometry y="390" width="220" height="30" as="geometry" />
        </mxCell>
        <mxCell id="bW6O4sqhg-djHRlfO87y-38" value="Produsent_9734" style="text;whiteSpace=wrap;fillColor=#d5e8d4;strokeColor=#82b366;" parent="bW6O4sqhg-djHRlfO87y-7" vertex="1">
          <mxGeometry y="420" width="220" height="30" as="geometry" />
        </mxCell>
        <mxCell id="bW6O4sqhg-djHRlfO87y-39" value="Produktnavn_9735" style="text;whiteSpace=wrap;fillColor=#d5e8d4;strokeColor=#82b366;" parent="bW6O4sqhg-djHRlfO87y-7" vertex="1">
          <mxGeometry y="450" width="220" height="30" as="geometry" />
        </mxCell>
        <mxCell id="bW6O4sqhg-djHRlfO87y-40" value="Arkivnummer_9730" style="text;whiteSpace=wrap;fillColor=#f5f5f5;strokeColor=#666666;fontColor=#333333;" parent="bW6O4sqhg-djHRlfO87y-7" vertex="1">
          <mxGeometry y="480" width="220" height="30" as="geometry" />
        </mxCell>
        <mxCell id="bW6O4sqhg-djHRlfO87y-41" value="Arkivreferanse_11701" style="text;whiteSpace=wrap;fillColor=#d5e8d4;strokeColor=#82b366;" parent="bW6O4sqhg-djHRlfO87y-7" vertex="1">
          <mxGeometry y="510" width="220" height="30" as="geometry" />
        </mxCell>
        <mxCell id="bW6O4sqhg-djHRlfO87y-42" value="Prosjektreferanse_11168" style="text;whiteSpace=wrap;fillColor=#f5f5f5;strokeColor=#666666;fontColor=#333333;" parent="bW6O4sqhg-djHRlfO87y-7" vertex="1">
          <mxGeometry y="540" width="220" height="30" as="geometry" />
        </mxCell>
        <mxCell id="bW6O4sqhg-djHRlfO87y-43" value="ProsjektInternObjekt_12427" style="text;whiteSpace=wrap;fillColor=#f5f5f5;strokeColor=#666666;fontColor=#333333;" parent="bW6O4sqhg-djHRlfO87y-7" vertex="1">
          <mxGeometry y="570" width="220" height="30" as="geometry" />
        </mxCell>
        <mxCell id="bW6O4sqhg-djHRlfO87y-44" value="FKB_ID_10859" style="text;whiteSpace=wrap;fillColor=#d5e8d4;strokeColor=#82b366;" parent="bW6O4sqhg-djHRlfO87y-7" vertex="1">
          <mxGeometry y="600" width="220" height="30" as="geometry" />
        </mxCell>
        <mxCell id="bW6O4sqhg-djHRlfO87y-45" value="RelevantForEkomporta_12451" style="text;whiteSpace=wrap;fillColor=#d5e8d4;strokeColor=#82b366;" parent="bW6O4sqhg-djHRlfO87y-7" vertex="1">
          <mxGeometry y="630" width="220" height="30" as="geometry" />
        </mxCell>
        <mxCell id="bW6O4sqhg-djHRlfO87y-46" value="Eier_9732" style="text;whiteSpace=wrap;fillColor=#f8cecc;strokeColor=#b85450;" parent="bW6O4sqhg-djHRlfO87y-7" vertex="1">
          <mxGeometry y="660" width="220" height="30" as="geometry" />
        </mxCell>
        <mxCell id="bW6O4sqhg-djHRlfO87y-47" value="EierNavn_9733" style="text;whiteSpace=wrap;fillColor=#e1d5e7;strokeColor=#9673a6;" parent="bW6O4sqhg-djHRlfO87y-7" vertex="1">
          <mxGeometry y="690" width="220" height="30" as="geometry" />
        </mxCell>
        <mxCell id="bW6O4sqhg-djHRlfO87y-48" value="Vedlikeholdsansvarli_10981" style="text;whiteSpace=wrap;fillColor=#e1d5e7;strokeColor=#9673a6;" parent="bW6O4sqhg-djHRlfO87y-7" vertex="1">
          <mxGeometry y="720" width="220" height="30" as="geometry" />
        </mxCell>
        <mxCell id="bW6O4sqhg-djHRlfO87y-49" value="GeometriPunkt_9843" style="text;whiteSpace=wrap;fillColor=#f8cecc;strokeColor=#b85450;" parent="bW6O4sqhg-djHRlfO87y-7" vertex="1">
          <mxGeometry y="750" width="220" height="30" as="geometry" />
        </mxCell>
        <mxCell id="bW6O4sqhg-djHRlfO87y-24" value="Horizontal Container" style="swimlane;horizontal=0;whiteSpace=wrap;html=1;" parent="1" vertex="1">
          <mxGeometry x="730" y="720" width="930" height="200" as="geometry" />
        </mxCell>
        <mxCell id="bW6O4sqhg-djHRlfO87y-50" value="Påkrevd&#xa;(Må være utfyllt, riktig)" style="text;whiteSpace=wrap;fillColor=#f8cecc;strokeColor=#b85450;" parent="1" vertex="1">
          <mxGeometry x="160" y="320" width="160" height="40" as="geometry" />
        </mxCell>
        <mxCell id="bW6O4sqhg-djHRlfO87y-51" value="Betinget &#xa;(dersom &quot;xxx&quot; --&gt; påkrevd)" style="text;whiteSpace=wrap;fillColor=#e1d5e7;strokeColor=#9673a6;" parent="1" vertex="1">
          <mxGeometry x="160" y="370" width="160" height="40" as="geometry" />
        </mxCell>
        <mxCell id="bW6O4sqhg-djHRlfO87y-52" value="Opsjonell &#xa;(Valgfri)" style="text;whiteSpace=wrap;fillColor=#d5e8d4;strokeColor=#82b366;" parent="1" vertex="1">
          <mxGeometry x="160" y="420" width="160" height="40" as="geometry" />
        </mxCell>
        <mxCell id="bW6O4sqhg-djHRlfO87y-60" style="edgeStyle=orthogonalEdgeStyle;rounded=0;orthogonalLoop=1;jettySize=auto;html=1;entryX=0;entryY=0.5;entryDx=0;entryDy=0;" parent="1" source="bW6O4sqhg-djHRlfO87y-53" target="bW6O4sqhg-djHRlfO87y-25" edge="1">
          <mxGeometry relative="1" as="geometry" />
        </mxCell>
        <mxCell id="bW6O4sqhg-djHRlfO87y-53" value="enum_Kumform_9738" style="swimlane;fontStyle=0;childLayout=stackLayout;horizontal=1;startSize=30;horizontalStack=0;resizeParent=1;resizeParentMax=0;resizeLast=0;collapsible=1;marginBottom=0;whiteSpace=wrap;html=1;" parent="1" vertex="1">
          <mxGeometry x="-290" y="80" width="140" height="120" as="geometry" />
        </mxCell>
        <mxCell id="bW6O4sqhg-djHRlfO87y-57" value="Kvadratisk" style="text;whiteSpace=wrap;" parent="bW6O4sqhg-djHRlfO87y-53" vertex="1">
          <mxGeometry y="30" width="140" height="30" as="geometry" />
        </mxCell>
        <mxCell id="bW6O4sqhg-djHRlfO87y-58" value="Rektangulær" style="text;whiteSpace=wrap;" parent="bW6O4sqhg-djHRlfO87y-53" vertex="1">
          <mxGeometry y="60" width="140" height="30" as="geometry" />
        </mxCell>
        <mxCell id="bW6O4sqhg-djHRlfO87y-59" value="Rund" style="text;whiteSpace=wrap;" parent="bW6O4sqhg-djHRlfO87y-53" vertex="1">
          <mxGeometry y="90" width="140" height="30" as="geometry" />
        </mxCell>
        <mxCell id="bW6O4sqhg-djHRlfO87y-76" style="edgeStyle=orthogonalEdgeStyle;rounded=0;orthogonalLoop=1;jettySize=auto;html=1;entryX=0;entryY=0.5;entryDx=0;entryDy=0;" parent="1" source="bW6O4sqhg-djHRlfO87y-61" target="bW6O4sqhg-djHRlfO87y-26" edge="1">
          <mxGeometry relative="1" as="geometry" />
        </mxCell>
        <mxCell id="bW6O4sqhg-djHRlfO87y-61" value="enum_&lt;span style=&quot;text-align: left;&quot;&gt;Plassering_9740&lt;/span&gt;" style="swimlane;fontStyle=0;childLayout=stackLayout;horizontal=1;startSize=30;horizontalStack=0;resizeParent=1;resizeParentMax=0;resizeLast=0;collapsible=1;marginBottom=0;whiteSpace=wrap;html=1;" parent="1" vertex="1">
          <mxGeometry x="-500" y="-10" width="140" height="470" as="geometry" />
        </mxCell>
        <mxCell id="bW6O4sqhg-djHRlfO87y-65" value="I terreng" style="text;whiteSpace=wrap;" parent="bW6O4sqhg-djHRlfO87y-61" vertex="1">
          <mxGeometry y="30" width="140" height="40" as="geometry" />
        </mxCell>
        <mxCell id="bW6O4sqhg-djHRlfO87y-75" value="I tunnelbankett" style="text;whiteSpace=wrap;" parent="bW6O4sqhg-djHRlfO87y-61" vertex="1">
          <mxGeometry y="70" width="140" height="40" as="geometry" />
        </mxCell>
        <mxCell id="bW6O4sqhg-djHRlfO87y-74" value="Bak betongrekkverk" style="text;whiteSpace=wrap;" parent="bW6O4sqhg-djHRlfO87y-61" vertex="1">
          <mxGeometry y="110" width="140" height="40" as="geometry" />
        </mxCell>
        <mxCell id="bW6O4sqhg-djHRlfO87y-73" value="I vegskulder" style="text;whiteSpace=wrap;" parent="bW6O4sqhg-djHRlfO87y-61" vertex="1">
          <mxGeometry y="150" width="140" height="40" as="geometry" />
        </mxCell>
        <mxCell id="bW6O4sqhg-djHRlfO87y-72" value="I trafikkdeler" style="text;whiteSpace=wrap;" parent="bW6O4sqhg-djHRlfO87y-61" vertex="1">
          <mxGeometry y="190" width="140" height="40" as="geometry" />
        </mxCell>
        <mxCell id="bW6O4sqhg-djHRlfO87y-71" value="I fortau" style="text;whiteSpace=wrap;" parent="bW6O4sqhg-djHRlfO87y-61" vertex="1">
          <mxGeometry y="230" width="140" height="40" as="geometry" />
        </mxCell>
        <mxCell id="bW6O4sqhg-djHRlfO87y-70" value="I g/s-veg" style="text;whiteSpace=wrap;" parent="bW6O4sqhg-djHRlfO87y-61" vertex="1">
          <mxGeometry y="270" width="140" height="40" as="geometry" />
        </mxCell>
        <mxCell id="bW6O4sqhg-djHRlfO87y-69" value="I fjellrom/nisje" style="text;whiteSpace=wrap;" parent="bW6O4sqhg-djHRlfO87y-61" vertex="1">
          <mxGeometry y="310" width="140" height="40" as="geometry" />
        </mxCell>
        <mxCell id="bW6O4sqhg-djHRlfO87y-68" value="I vegbane" style="text;whiteSpace=wrap;" parent="bW6O4sqhg-djHRlfO87y-61" vertex="1">
          <mxGeometry y="350" width="140" height="40" as="geometry" />
        </mxCell>
        <mxCell id="bW6O4sqhg-djHRlfO87y-67" value="På tunnelvegg utside" style="text;whiteSpace=wrap;" parent="bW6O4sqhg-djHRlfO87y-61" vertex="1">
          <mxGeometry y="390" width="140" height="40" as="geometry" />
        </mxCell>
        <mxCell id="bW6O4sqhg-djHRlfO87y-66" value="På tunnelvegg innside" style="text;whiteSpace=wrap;" parent="bW6O4sqhg-djHRlfO87y-61" vertex="1">
          <mxGeometry y="430" width="140" height="40" as="geometry" />
        </mxCell>
        <mxCell id="bW6O4sqhg-djHRlfO87y-77" value="enum_MaterialeKum_9741" style="swimlane;fontStyle=0;childLayout=stackLayout;horizontal=1;startSize=30;horizontalStack=0;resizeParent=1;resizeParentMax=0;resizeLast=0;collapsible=1;marginBottom=0;whiteSpace=wrap;html=1;" parent="1" vertex="1">
          <mxGeometry x="-690" y="355" width="160" height="230" as="geometry">
            <mxRectangle x="-690" y="355" width="180" height="30" as="alternateBounds" />
          </mxGeometry>
        </mxCell>
        <mxCell id="bW6O4sqhg-djHRlfO87y-81" value="Betong" style="text;whiteSpace=wrap;" parent="bW6O4sqhg-djHRlfO87y-77" vertex="1">
          <mxGeometry y="30" width="160" height="40" as="geometry" />
        </mxCell>
        <mxCell id="bW6O4sqhg-djHRlfO87y-85" value="Skumglassplater" style="text;whiteSpace=wrap;" parent="bW6O4sqhg-djHRlfO87y-77" vertex="1">
          <mxGeometry y="70" width="160" height="40" as="geometry" />
        </mxCell>
        <mxCell id="bW6O4sqhg-djHRlfO87y-84" value="Stål" style="text;whiteSpace=wrap;" parent="bW6O4sqhg-djHRlfO87y-77" vertex="1">
          <mxGeometry y="110" width="160" height="40" as="geometry" />
        </mxCell>
        <mxCell id="bW6O4sqhg-djHRlfO87y-83" value="Plast" style="text;whiteSpace=wrap;" parent="bW6O4sqhg-djHRlfO87y-77" vertex="1">
          <mxGeometry y="150" width="160" height="40" as="geometry" />
        </mxCell>
        <mxCell id="bW6O4sqhg-djHRlfO87y-82" value="Betong, spesialprodusert" style="text;whiteSpace=wrap;" parent="bW6O4sqhg-djHRlfO87y-77" vertex="1">
          <mxGeometry y="190" width="160" height="40" as="geometry" />
        </mxCell>
        <mxCell id="bW6O4sqhg-djHRlfO87y-86" style="edgeStyle=orthogonalEdgeStyle;rounded=0;orthogonalLoop=1;jettySize=auto;html=1;entryX=0;entryY=0.5;entryDx=0;entryDy=0;" parent="1" source="bW6O4sqhg-djHRlfO87y-84" target="bW6O4sqhg-djHRlfO87y-27" edge="1">
          <mxGeometry relative="1" as="geometry" />
        </mxCell>
        <mxCell id="bW6O4sqhg-djHRlfO87y-95" style="edgeStyle=orthogonalEdgeStyle;rounded=0;orthogonalLoop=1;jettySize=auto;html=1;entryX=0;entryY=0.5;entryDx=0;entryDy=0;" parent="1" source="bW6O4sqhg-djHRlfO87y-91" target="bW6O4sqhg-djHRlfO87y-28" edge="1">
          <mxGeometry relative="1" as="geometry" />
        </mxCell>
        <mxCell id="bW6O4sqhg-djHRlfO87y-91" value="enum_&lt;span style=&quot;text-align: left;&quot;&gt;MaterialeLokk_11241&lt;/span&gt;" style="swimlane;fontStyle=0;childLayout=stackLayout;horizontal=1;startSize=30;horizontalStack=0;resizeParent=1;resizeParentMax=0;resizeLast=0;collapsible=1;marginBottom=0;whiteSpace=wrap;html=1;" parent="1" vertex="1">
          <mxGeometry x="-503" y="510" width="180" height="150" as="geometry" />
        </mxCell>
        <mxCell id="bW6O4sqhg-djHRlfO87y-88" value="Plast" style="text;whiteSpace=wrap;" parent="bW6O4sqhg-djHRlfO87y-91" vertex="1">
          <mxGeometry y="30" width="180" height="40" as="geometry" />
        </mxCell>
        <mxCell id="bW6O4sqhg-djHRlfO87y-90" value="Betong" style="text;whiteSpace=wrap;" parent="bW6O4sqhg-djHRlfO87y-91" vertex="1">
          <mxGeometry y="70" width="180" height="40" as="geometry" />
        </mxCell>
        <mxCell id="bW6O4sqhg-djHRlfO87y-89" value="Støpjern" style="text;whiteSpace=wrap;" parent="bW6O4sqhg-djHRlfO87y-91" vertex="1">
          <mxGeometry y="110" width="180" height="40" as="geometry" />
        </mxCell>
        <mxCell id="bW6O4sqhg-djHRlfO87y-97" value="enum_&lt;span style=&quot;text-align: left;&quot;&gt;Brannsikker_9742&lt;/span&gt;" style="swimlane;fontStyle=0;childLayout=stackLayout;horizontal=1;startSize=30;horizontalStack=0;resizeParent=1;resizeParentMax=0;resizeLast=0;collapsible=1;marginBottom=0;whiteSpace=wrap;html=1;" parent="1" vertex="1">
          <mxGeometry x="-560" y="680" width="170" height="110" as="geometry" />
        </mxCell>
        <mxCell id="bW6O4sqhg-djHRlfO87y-102" value="Nei" style="text;whiteSpace=wrap;" parent="bW6O4sqhg-djHRlfO87y-97" vertex="1">
          <mxGeometry y="30" width="170" height="40" as="geometry" />
        </mxCell>
        <mxCell id="bW6O4sqhg-djHRlfO87y-101" value="Ja" style="text;whiteSpace=wrap;" parent="bW6O4sqhg-djHRlfO87y-97" vertex="1">
          <mxGeometry y="70" width="170" height="40" as="geometry" />
        </mxCell>
        <mxCell id="bW6O4sqhg-djHRlfO87y-103" style="edgeStyle=orthogonalEdgeStyle;rounded=0;orthogonalLoop=1;jettySize=auto;html=1;entryX=0;entryY=0.5;entryDx=0;entryDy=0;" parent="1" source="bW6O4sqhg-djHRlfO87y-102" target="bW6O4sqhg-djHRlfO87y-29" edge="1">
          <mxGeometry relative="1" as="geometry">
            <Array as="points">
              <mxPoint x="-200" y="730" />
              <mxPoint x="-200" y="485" />
            </Array>
          </mxGeometry>
        </mxCell>
        <mxCell id="bW6O4sqhg-djHRlfO87y-106" value="enum_&lt;span style=&quot;text-align: left;&quot;&gt;RelevantForEkomporta_12451&lt;/span&gt;" style="swimlane;fontStyle=0;childLayout=stackLayout;horizontal=1;startSize=30;horizontalStack=0;resizeParent=1;resizeParentMax=0;resizeLast=0;collapsible=1;marginBottom=0;whiteSpace=wrap;html=1;" parent="1" vertex="1">
          <mxGeometry x="-610" y="840" width="220" height="110" as="geometry" />
        </mxCell>
        <mxCell id="bW6O4sqhg-djHRlfO87y-105" value="Nei" style="text;whiteSpace=wrap;" parent="bW6O4sqhg-djHRlfO87y-106" vertex="1">
          <mxGeometry y="30" width="220" height="40" as="geometry" />
        </mxCell>
        <mxCell id="bW6O4sqhg-djHRlfO87y-104" value="Ja" style="text;whiteSpace=wrap;" parent="bW6O4sqhg-djHRlfO87y-106" vertex="1">
          <mxGeometry y="70" width="220" height="40" as="geometry" />
        </mxCell>
        <mxCell id="bW6O4sqhg-djHRlfO87y-110" style="edgeStyle=orthogonalEdgeStyle;rounded=0;orthogonalLoop=1;jettySize=auto;html=1;entryX=0;entryY=0.5;entryDx=0;entryDy=0;" parent="1" source="bW6O4sqhg-djHRlfO87y-105" target="bW6O4sqhg-djHRlfO87y-45" edge="1">
          <mxGeometry relative="1" as="geometry" />
        </mxCell>
        <mxCell id="bW6O4sqhg-djHRlfO87y-117" value="enum_Eier_9732" style="swimlane;fontStyle=0;childLayout=stackLayout;horizontal=1;startSize=30;horizontalStack=0;resizeParent=1;resizeParentMax=0;resizeLast=0;collapsible=1;marginBottom=0;whiteSpace=wrap;html=1;" parent="1" vertex="1">
          <mxGeometry x="-800" y="880" width="140" height="270" as="geometry" />
        </mxCell>
        <mxCell id="bW6O4sqhg-djHRlfO87y-116" value="Uavklart" style="text;whiteSpace=wrap;" parent="bW6O4sqhg-djHRlfO87y-117" vertex="1">
          <mxGeometry y="30" width="140" height="40" as="geometry" />
        </mxCell>
        <mxCell id="bW6O4sqhg-djHRlfO87y-115" value="Privat" style="text;whiteSpace=wrap;" parent="bW6O4sqhg-djHRlfO87y-117" vertex="1">
          <mxGeometry y="70" width="140" height="40" as="geometry" />
        </mxCell>
        <mxCell id="bW6O4sqhg-djHRlfO87y-114" value="Kommune" style="text;whiteSpace=wrap;" parent="bW6O4sqhg-djHRlfO87y-117" vertex="1">
          <mxGeometry y="110" width="140" height="40" as="geometry" />
        </mxCell>
        <mxCell id="bW6O4sqhg-djHRlfO87y-113" value="Fylkeskommune" style="text;whiteSpace=wrap;" parent="bW6O4sqhg-djHRlfO87y-117" vertex="1">
          <mxGeometry y="150" width="140" height="40" as="geometry" />
        </mxCell>
        <mxCell id="bW6O4sqhg-djHRlfO87y-112" value="Stat, Statens vegvesen" style="text;whiteSpace=wrap;" parent="bW6O4sqhg-djHRlfO87y-117" vertex="1">
          <mxGeometry y="190" width="140" height="40" as="geometry" />
        </mxCell>
        <mxCell id="bW6O4sqhg-djHRlfO87y-111" value="Stat, Nye Veier" style="text;whiteSpace=wrap;" parent="bW6O4sqhg-djHRlfO87y-117" vertex="1">
          <mxGeometry y="230" width="140" height="40" as="geometry" />
        </mxCell>
        <mxCell id="bW6O4sqhg-djHRlfO87y-121" style="edgeStyle=orthogonalEdgeStyle;rounded=0;orthogonalLoop=1;jettySize=auto;html=1;entryX=0;entryY=0.5;entryDx=0;entryDy=0;" parent="1" source="bW6O4sqhg-djHRlfO87y-114" target="bW6O4sqhg-djHRlfO87y-46" edge="1">
          <mxGeometry relative="1" as="geometry" />
        </mxCell>
        <mxCell id="bW6O4sqhg-djHRlfO87y-129" value="enum_Vedlikeholdsansvarli_10981" style="swimlane;fontStyle=0;childLayout=stackLayout;horizontal=1;startSize=30;horizontalStack=0;resizeParent=1;resizeParentMax=0;resizeLast=0;collapsible=1;marginBottom=0;whiteSpace=wrap;html=1;" parent="1" vertex="1">
          <mxGeometry x="-590" y="1050" width="200" height="310" as="geometry" />
        </mxCell>
        <mxCell id="bW6O4sqhg-djHRlfO87y-122" value="Statens vegvesen" style="text;whiteSpace=wrap;" parent="bW6O4sqhg-djHRlfO87y-129" vertex="1">
          <mxGeometry y="30" width="200" height="40" as="geometry" />
        </mxCell>
        <mxCell id="bW6O4sqhg-djHRlfO87y-128" value="OPS" style="text;whiteSpace=wrap;" parent="bW6O4sqhg-djHRlfO87y-129" vertex="1">
          <mxGeometry y="70" width="200" height="40" as="geometry" />
        </mxCell>
        <mxCell id="bW6O4sqhg-djHRlfO87y-127" value="Nye Veier" style="text;whiteSpace=wrap;" parent="bW6O4sqhg-djHRlfO87y-129" vertex="1">
          <mxGeometry y="110" width="200" height="40" as="geometry" />
        </mxCell>
        <mxCell id="bW6O4sqhg-djHRlfO87y-126" value="Fylkeskommune" style="text;whiteSpace=wrap;" parent="bW6O4sqhg-djHRlfO87y-129" vertex="1">
          <mxGeometry y="150" width="200" height="40" as="geometry" />
        </mxCell>
        <mxCell id="bW6O4sqhg-djHRlfO87y-125" value="Uavklart" style="text;whiteSpace=wrap;" parent="bW6O4sqhg-djHRlfO87y-129" vertex="1">
          <mxGeometry y="190" width="200" height="40" as="geometry" />
        </mxCell>
        <mxCell id="bW6O4sqhg-djHRlfO87y-124" value="Privat" style="text;whiteSpace=wrap;" parent="bW6O4sqhg-djHRlfO87y-129" vertex="1">
          <mxGeometry y="230" width="200" height="40" as="geometry" />
        </mxCell>
        <mxCell id="bW6O4sqhg-djHRlfO87y-123" value="Kommune" style="text;whiteSpace=wrap;" parent="bW6O4sqhg-djHRlfO87y-129" vertex="1">
          <mxGeometry y="270" width="200" height="40" as="geometry" />
        </mxCell>
        <mxCell id="bW6O4sqhg-djHRlfO87y-133" style="edgeStyle=orthogonalEdgeStyle;rounded=0;orthogonalLoop=1;jettySize=auto;html=1;entryX=0;entryY=0.5;entryDx=0;entryDy=0;" parent="1" source="bW6O4sqhg-djHRlfO87y-126" target="bW6O4sqhg-djHRlfO87y-48" edge="1">
          <mxGeometry relative="1" as="geometry" />
        </mxCell>
        <mxCell id="bW6O4sqhg-djHRlfO87y-137" style="edgeStyle=orthogonalEdgeStyle;rounded=0;orthogonalLoop=1;jettySize=auto;html=1;entryX=1;entryY=0.5;entryDx=0;entryDy=0;" parent="1" source="bW6O4sqhg-djHRlfO87y-136" target="bW6O4sqhg-djHRlfO87y-30" edge="1">
          <mxGeometry relative="1" as="geometry" />
        </mxCell>
        <mxCell id="bW6O4sqhg-djHRlfO87y-136" value="Påkrevd hvis Kumform=Rund." style="text;whiteSpace=wrap;" parent="1" vertex="1">
          <mxGeometry x="160" y="500" width="190" height="30" as="geometry" />
        </mxCell>
        <mxCell id="bW6O4sqhg-djHRlfO87y-139" style="edgeStyle=orthogonalEdgeStyle;rounded=0;orthogonalLoop=1;jettySize=auto;html=1;entryX=1;entryY=0.5;entryDx=0;entryDy=0;" parent="1" source="bW6O4sqhg-djHRlfO87y-138" target="bW6O4sqhg-djHRlfO87y-31" edge="1">
          <mxGeometry relative="1" as="geometry" />
        </mxCell>
        <mxCell id="bW6O4sqhg-djHRlfO87y-140" style="edgeStyle=orthogonalEdgeStyle;rounded=0;orthogonalLoop=1;jettySize=auto;html=1;entryX=1;entryY=0.5;entryDx=0;entryDy=0;" parent="1" source="bW6O4sqhg-djHRlfO87y-138" target="bW6O4sqhg-djHRlfO87y-32" edge="1">
          <mxGeometry relative="1" as="geometry" />
        </mxCell>
        <mxCell id="bW6O4sqhg-djHRlfO87y-138" value="Påkrevd hvis Kumform=Kvadratisk eller Rektangulær." style="text;whiteSpace=wrap;" parent="1" vertex="1">
          <mxGeometry x="160" y="550" width="290" height="25" as="geometry" />
        </mxCell>
        <mxCell id="bW6O4sqhg-djHRlfO87y-142" style="edgeStyle=orthogonalEdgeStyle;rounded=0;orthogonalLoop=1;jettySize=auto;html=1;entryX=1;entryY=0.5;entryDx=0;entryDy=0;" parent="1" source="bW6O4sqhg-djHRlfO87y-141" target="bW6O4sqhg-djHRlfO87y-40" edge="1">
          <mxGeometry relative="1" as="geometry" />
        </mxCell>
        <mxCell id="bW6O4sqhg-djHRlfO87y-141" value="Dersom flere arkivnummer gis disse etter hverandre med semikolon mellom." style="text;whiteSpace=wrap;" parent="1" vertex="1">
          <mxGeometry x="160" y="800" width="410" height="30" as="geometry" />
        </mxCell>
        <mxCell id="bW6O4sqhg-djHRlfO87y-144" style="edgeStyle=orthogonalEdgeStyle;rounded=0;orthogonalLoop=1;jettySize=auto;html=1;" parent="1" source="bW6O4sqhg-djHRlfO87y-143" target="bW6O4sqhg-djHRlfO87y-42" edge="1">
          <mxGeometry relative="1" as="geometry" />
        </mxCell>
        <mxCell id="bW6O4sqhg-djHRlfO87y-143" value="Skal angis for nye vegobjekter som overføres fra et utbyggings- eller vedlikeholdsprosjekt." style="text;whiteSpace=wrap;" parent="1" vertex="1">
          <mxGeometry x="160" y="860" width="490" height="30" as="geometry" />
        </mxCell>
        <mxCell id="bW6O4sqhg-djHRlfO87y-146" style="edgeStyle=orthogonalEdgeStyle;rounded=0;orthogonalLoop=1;jettySize=auto;html=1;entryX=1;entryY=0.5;entryDx=0;entryDy=0;" parent="1" source="bW6O4sqhg-djHRlfO87y-145" target="bW6O4sqhg-djHRlfO87y-43" edge="1">
          <mxGeometry relative="1" as="geometry" />
        </mxCell>
        <mxCell id="bW6O4sqhg-djHRlfO87y-145" value="Skal angis for vegobjekt tilhørende Nye Veier AS så fremt slik ID er etablert." style="text;whiteSpace=wrap;" parent="1" vertex="1">
          <mxGeometry x="160" y="890" width="410" height="30" as="geometry" />
        </mxCell>
        <mxCell id="bW6O4sqhg-djHRlfO87y-149" style="edgeStyle=orthogonalEdgeStyle;rounded=0;orthogonalLoop=1;jettySize=auto;html=1;entryX=1;entryY=0.5;entryDx=0;entryDy=0;" parent="1" source="bW6O4sqhg-djHRlfO87y-147" target="bW6O4sqhg-djHRlfO87y-47" edge="1">
          <mxGeometry relative="1" as="geometry" />
        </mxCell>
        <mxCell id="bW6O4sqhg-djHRlfO87y-147" value="Påkrevd hvis privat eier." style="text;whiteSpace=wrap;" parent="1" vertex="1">
          <mxGeometry x="160" y="1010" width="140" height="30" as="geometry" />
        </mxCell>
        <mxCell id="bW6O4sqhg-djHRlfO87y-151" style="edgeStyle=orthogonalEdgeStyle;rounded=0;orthogonalLoop=1;jettySize=auto;html=1;entryX=1;entryY=0.5;entryDx=0;entryDy=0;" parent="1" source="bW6O4sqhg-djHRlfO87y-150" target="bW6O4sqhg-djHRlfO87y-48" edge="1">
          <mxGeometry relative="1" as="geometry" />
        </mxCell>
        <mxCell id="bW6O4sqhg-djHRlfO87y-150" value="Skal angis om vedlikeholdsansvarlig avviker fra eier av vegobjektet. Skal angis for alle vegobjekter tilhørende Nye Veier AS." style="text;whiteSpace=wrap;" parent="1" vertex="1">
          <mxGeometry x="160" y="1040" width="370" height="30" as="geometry" />
        </mxCell>
        <mxCell id="zUuvNlaWcYPSAnGcVQdX-1" value="Betinget prosjektspesifikk&#xa;(dersom oppgitt av byggherre --&gt; påkrevd)" style="text;whiteSpace=wrap;fillColor=#f5f5f5;strokeColor=#666666;fontColor=#333333;" vertex="1" parent="1">
          <mxGeometry x="334" y="370" width="236" height="40" as="geometry" />
        </mxCell>
      </root>
    </mxGraphModel>
  </diagram>
</mxfile>
